<svg fill="#0070C0" xmlns="http://www.w3.org/2000/svg" xmlns:xlink="http://www.w3.org/1999/xlink" version="1.1" x="0px" y="0px" viewBox="0 0 100 100" style="enable-background:new 0 0 100 100;" xml:space="preserve"><g><path d="M60.5,78H12.3c-0.7,0-1.3-0.6-1.3-1.3v-6.1c0-3.3,3-6,9.2-8.3c6.8-2.5,8-4.4,8-8.4c0-0.9-0.2-1.2-0.6-1.8   c-0.6-0.9-1.4-2-2-5.1c0-0.2-0.1-0.2-0.1-0.2c0,0-0.1-0.1-0.2-0.1c-1.4-0.7-2.2-1.6-2.4-4.7c0-1.5,0.5-2.5,0.9-3   c-0.1-0.6-0.2-1.4-0.4-2.4c-0.5-2.8-1.7-10.3,6-13.4c5.6-2.3,10.3-1.2,12,0.4c1.2,0.1,3.7,0.4,5.5,2.5c2.9,3.3,2.1,10.5,1.7,12.8   c0.5,0.5,1,1.4,1,2.9c-0.2,3.2-1.1,4.2-2.4,4.8c-0.1,0-0.2,0.1-0.2,0.1c0,0,0,0.1-0.1,0.2c-0.6,3-1.4,4.2-2,5.1   c-0.4,0.6-0.6,0.9-0.6,1.8c0,4,1.2,5.9,8,8.4c6.2,2.3,9.2,5,9.2,8.3v6.1C61.7,77.4,61.2,78,60.5,78z M13.5,75.5h45.7v-4.9   c0-2.6-4.1-4.7-7.5-5.9c0,0,0,0,0,0C44.2,62,42,59.5,42,54c0-1.7,0.5-2.5,1-3.2c0.5-0.7,1.1-1.6,1.6-4.1c0.3-1.5,1.1-1.9,1.7-2.1   c0.4-0.2,0.8-0.4,1-2.7c0-1-0.4-1.2-0.4-1.3c-0.6-0.2-0.7-0.7-0.6-1.3c0.4-2.2,1.1-8.9-1-11.4c-1.4-1.6-3.6-1.7-4.1-1.7   c-0.1,0-0.3,0-0.4,0c0,0-0.2,0-0.2,0c-0.3-0.1-0.6-0.3-0.7-0.6c-0.4-0.5-3.9-2.1-9.4,0c-5.1,2.1-5.2,6.4-4.5,10.7   c0.2,1.6,0.5,3,0.5,3c0.1,0.6-0.1,1.2-0.7,1.4c0,0-0.3,0.3-0.3,1.3c0.2,2.2,0.6,2.4,1,2.6c0.5,0.3,1.4,0.7,1.7,2.1   c0.5,2.5,1.1,3.4,1.6,4.1c0.5,0.7,1,1.5,1,3.2c0,5.5-2.3,8-9.7,10.7c-3.4,1.3-7.5,3.3-7.5,5.9V75.5z"></path><path d="M89,74.5v2.3c0,0.7-0.6,1.3-1.3,1.3H66.6c-0.7,0-1.3-0.6-1.3-1.3s0.6-1.3,1.3-1.3h19.9v-1c0-2.4-3.8-4.4-7.1-5.5   c-5.5-2-7.9-3.9-8.8-6.9c-0.1-0.4,0-0.8,0.2-1.1c0.2-0.3,0.5-0.4,0.8-0.5c5.5-1.2,7.3-3.7,7.9-5c-1.4-1.3-4.1-4.5-4.1-10.5   c0-7.8-1.7-12.6-10-12.6c-0.1,0-0.1,0-0.2,0c0,0,0,0,0,0c-0.1,0-0.1,0-0.2,0c-8.3,0-10,4.8-10,12.6c0,6-2.7,9.2-4.1,10.5   c0.6,1.2,2.4,3.8,7.9,5c0.6,0.1,1,0.6,1,1.2c0,0.7-0.5,1.3-1.2,1.3h0c-0.1,0-0.2,0-0.3,0c-7.8-1.6-9.7-5.9-10.1-7.3   c0,0,0-0.1,0-0.1c0,0,0-0.1,0-0.2c0,0,0,0,0-0.1v0c-0.1-0.5,0.1-1,0.5-1.3c0.1-0.1,3.7-2.6,3.7-9c0-7.5,1.5-15.1,12.5-15.1   c0.1,0,0.2,0,0.2,0c0,0,0,0,0,0c0.1,0,0.1,0,0.2,0c11,0,12.5,7.6,12.5,15.1c0,6.4,3.6,8.9,3.8,9c0.4,0.3,0.6,0.8,0.5,1.3   c0,0.1,0,0.1,0,0.2l0,0.1c0,0,0,0,0,0c0,0,0,0.1,0,0.1c-0.4,1.2-2,5.1-8.6,6.9c0.8,1.3,2.6,2.6,6.7,4.1C86.2,68.7,89,71.3,89,74.5z   "></path></g></svg>