<svg fill="#0070C0" xmlns:dc="http://purl.org/dc/elements/1.1/" xmlns:cc="http://creativecommons.org/ns#" xmlns:rdf="http://www.w3.org/1999/02/22-rdf-syntax-ns#" xmlns:svg="http://www.w3.org/2000/svg" xmlns="http://www.w3.org/2000/svg" xmlns:sodipodi="http://sodipodi.sourceforge.net/DTD/sodipodi-0.dtd" xmlns:inkscape="http://www.inkscape.org/namespaces/inkscape" viewBox="0 0 32 32.000001" version="1.1" x="0px" y="0px"><g transform="translate(0,-1020.3622)"><path style="color:#000000;font-style:normal;font-variant:normal;font-weight:normal;font-stretch:normal;font-size:medium;line-height:normal;font-family:sans-serif;text-indent:0;text-align:start;text-decoration:none;text-decoration-line:none;text-decoration-style:solid;text-decoration-color:#000000;letter-spacing:normal;word-spacing:normal;text-transform:none;direction:ltr;writing-mode:lr-tb;baseline-shift:baseline;text-anchor:start;white-space:normal;clip-rule:nonzero;display:inline;overflow:visible;visibility:visible;opacity:1;isolation:auto;mix-blend-mode:normal;color-interpolation:sRGB;color-interpolation-filters:linearRGB;solid-color:#000000;solid-opacity:1;fill:#0070C0;fill-opacity:1;fill-rule:evenodd;stroke:none;stroke-width:1.00157475;stroke-linecap:butt;stroke-linejoin:round;stroke-miterlimit:4;stroke-dasharray:none;stroke-dashoffset:0;stroke-opacity:1;color-rendering:auto;image-rendering:auto;shape-rendering:auto;text-rendering:auto;enable-background:accumulate" d="m 5.5003379,1023.8622 a 0.50082128,0.50083746 0 0 0 -0.3534886,0.8555 l 11.6441237,11.6445 -11.6441237,11.6445 a 0.50082128,0.50083746 0 0 0 0.3534886,0.8555 l 20.9993211,0 a 0.50082128,0.50083746 0 0 0 0.499984,-0.5 l 0,-2 -1.001968,0 0,1.4981 -19.2864762,0 11.1422402,-11.1446 a 0.50082128,0.50083746 0 0 0 0,-0.707 l -11.1422402,-11.1445 19.2864762,0 0,1.498 1.001968,0 0,-1.998 a 0.50082128,0.50083746 0 0 0 -0.499984,-0.502 z"></path></g></svg>