<svg fill="#0070C0" xmlns="http://www.w3.org/2000/svg" xmlns:xlink="http://www.w3.org/1999/xlink" version="1.1" x="0px" y="0px" viewBox="0 0 100 100" enable-background="new 0 0 100 100" xml:space="preserve"><g><path d="M65.213,63.094l-9.154-9.154c-0.586-0.586-1.535-0.586-2.121,0s-0.586,1.535,0,2.121l9.154,9.154   c3.485,3.486,5.406,8.151,5.408,13.137l0.002,11.652c0,2.003,3,1.972,3-0.001l-0.004-11.651   C71.498,72.565,69.266,67.146,65.213,63.094z"></path><path d="M34.787,36.906l9.154,9.154c0.513,0.513,1.505,0.616,2.121,0c0.586-0.585,0.586-1.536,0-2.121l-9.154-9.154   c-3.486-3.486-5.406-8.151-5.408-13.137L31.498,9.996c0-2.011-3-2.011-3,0.001l0.004,11.651   C28.502,27.434,30.734,32.853,34.787,36.906z"></path><path d="M70.002,8.5c-0.828,0-1.5,0.671-1.5,1.5v8.504H34.998c-0.829,0-1.5,0.671-1.5,1.5s0.671,1.5,1.5,1.5h33.504v0.145   c0,2.393-0.452,4.704-1.294,6.85h-27.21c-0.829,0-1.5,0.671-1.5,1.5s0.671,1.5,1.5,1.5h25.693   c-0.746,1.194-1.618,2.319-2.641,3.332l-3.668,3.668h-9.385c-0.829,0-1.5,0.671-1.5,1.5s0.671,1.5,1.5,1.5h6.385l-7.434,7.434   c-0.003,0.003-0.008,0.004-0.012,0.008L34.833,63.044c-4.085,4.047-6.335,9.483-6.335,15.308V90c0,0.828,0.671,1.5,1.5,1.5   s1.5-0.672,1.5-1.5v-8.5h33.5c0.828,0,1.5-0.672,1.5-1.5s-0.672-1.5-1.5-1.5h-33.5v-0.148c0-2.393,0.452-4.703,1.294-6.85H60   c0.828,0,1.5-0.672,1.5-1.5s-0.672-1.5-1.5-1.5H34.308c0.747-1.194,1.618-2.318,2.641-3.332l3.67-3.67h9.379   c0.828,0,1.5-0.672,1.5-1.5s-0.672-1.5-1.5-1.5h-6.379l7.432-7.432c0.004-0.004,0.008-0.004,0.012-0.008l14.104-14.104   c4.085-4.047,6.335-9.483,6.335-15.308V10C71.502,9.171,70.83,8.5,70.002,8.5z"></path></g></svg>