<svg fill="#0070C0" xmlns="http://www.w3.org/2000/svg" xmlns:xlink="http://www.w3.org/1999/xlink" version="1.1" x="0px" y="0px" viewBox="0 0 100 100" enable-background="new 0 0 100 100" xml:space="preserve"><path d="M85.99,79.133c-0.019-0.028-0.038-0.056-0.059-0.082l-24.68-31.474v-29.54c2.774-0.415,4.913-2.808,4.913-5.696v-1.574  C66.165,7.587,63.578,5,60.398,5H39.602c-3.18,0-5.767,2.587-5.767,5.767v1.574c0,2.888,2.138,5.282,4.913,5.696v29.54  l-24.68,31.474c-0.021,0.026-0.04,0.054-0.059,0.081c-1.317,1.738-2.012,3.8-2.012,5.97c0,5.458,4.44,9.898,9.899,9.898h56.207  c5.458,0,9.898-4.44,9.898-9.898C88.002,82.932,87.307,80.87,85.99,79.133z M36.456,12.34v-1.574c0-1.734,1.412-3.145,3.146-3.145  h20.797c1.733,0,3.146,1.411,3.146,3.145v1.574c0,1.734-1.412,3.145-3.146,3.145h-0.457H40.059h-0.458  C37.868,15.485,36.456,14.074,36.456,12.34z M78.104,92.379H21.896c-4.013,0-7.278-3.265-7.278-7.277  c0-1.614,0.525-3.148,1.52-4.438c0.015-0.021,0.03-0.041,0.044-0.062L41.09,48.838c0.181-0.231,0.279-0.516,0.279-0.809V18.107  h17.26v3.331h-6.445c-0.724,0-1.311,0.587-1.311,1.311c0,0.723,0.587,1.311,1.311,1.311h6.445v2.881h-3.521  c-0.724,0-1.311,0.587-1.311,1.311s0.587,1.311,1.311,1.311h3.521v2.881h-6.445c-0.724,0-1.311,0.587-1.311,1.311  s0.587,1.311,1.311,1.311h6.445v2.881h-3.521c-0.724,0-1.311,0.587-1.311,1.311s0.587,1.311,1.311,1.311h3.521v2.881h-6.445  c-0.724,0-1.311,0.587-1.311,1.311s0.587,1.311,1.311,1.311h6.445v1.961c0,0.293,0.099,0.578,0.279,0.809l24.908,31.765  c0.015,0.021,0.029,0.041,0.044,0.062c0.993,1.288,1.52,2.822,1.52,4.438C85.381,89.114,82.116,92.379,78.104,92.379z"></path><path d="M66.942,62.632c-0.417-0.531-1.044-0.836-1.719-0.836H34.762c-0.675,0-1.301,0.305-1.72,0.837L17.864,81.996  c-0.698,0.902-1.068,1.976-1.068,3.105c0,2.809,2.285,5.093,5.094,5.093h56.207c2.809,0,5.093-2.284,5.093-5.093  c0-1.127-0.369-2.201-1.073-3.115L66.942,62.632z M78.097,87.573H21.89c-1.363,0-2.472-1.108-2.472-2.472  c0-0.544,0.18-1.062,0.515-1.495l15.042-19.188h30.038l15.035,19.178c0.346,0.448,0.521,0.955,0.521,1.506  C80.568,86.465,79.46,87.573,78.097,87.573z"></path></svg>