<svg fill="#0070C0" xmlns="http://www.w3.org/2000/svg" xmlns:xlink="http://www.w3.org/1999/xlink" viewBox="0 0 100 100" version="1.1" x="0px" y="0px"><title>Gear 4.1</title><desc>Created with Sketch.</desc><g stroke="none" stroke-width="1" fill="none" fill-rule="evenodd"><g stroke="#0070C0" stroke-width="2"><path d="M34.5041147,72.1176155 C31.8847965,70.2861812 29.6595294,68.033491 27.8840635,65.4941375 L32.1455301,61.0581933 C30.9522255,59.1278982 30.0767907,57.0144118 29.5556597,54.8056933 L23.4056616,54.682319 C22.8655115,51.6312809 22.8461205,48.464887 23.4032385,45.3177296 L29.5539955,45.1943401 C29.8107011,44.10811 30.1576046,43.0281355 30.5985298,41.9636479 C31.039455,40.8991603 31.5578144,39.8902052 32.1443769,38.9406063 L27.8823845,34.5041147 C29.7138188,31.8847965 31.966509,29.6595294 34.5058625,27.8840635 L38.9418067,32.1455301 C40.8721018,30.9522255 42.9855882,30.0767907 45.1943067,29.5556597 L45.317681,23.4056616 C48.3687191,22.8655115 51.535113,22.8461205 54.6822704,23.4032385 L54.8056599,29.5539955 C55.89189,29.8107011 56.9718645,30.1576046 58.0363521,30.5985298 C59.1008397,31.039455 60.1097948,31.5578144 61.0593937,32.1443769 L65.4958853,27.8823845 C68.1152035,29.7138188 70.3404706,31.966509 72.1159365,34.5058625 L67.8544699,38.9418067 C69.0477745,40.8721018 69.9232093,42.9855882 70.4443403,45.1943067 L76.5943384,45.317681 C77.1344885,48.3687191 77.1538795,51.535113 76.5967615,54.6822704 L70.4460045,54.8056599 C70.1892989,55.89189 69.8423954,56.9718645 69.4014702,58.0363521 C68.960545,59.1008397 68.4421856,60.1097948 67.8556231,61.0593937 L72.1176155,65.4958853 C70.2861812,68.1152035 68.033491,70.3404706 65.4941375,72.1159365 L61.0581933,67.8544699 C59.1278982,69.0477745 57.0144118,69.9232093 54.8056933,70.4443403 L54.682319,76.5943384 C51.6312809,77.1344885 48.464887,77.1538795 45.3177296,76.5967615 L45.1943401,70.4460045 C44.10811,70.1892989 43.0281355,69.8423954 41.9636479,69.4014702 C40.8991603,68.960545 39.8902052,68.4421856 38.9406063,67.8556231 L34.5041147,72.1176155 Z M45.0251154,62.0104339 C51.6582949,64.7579868 59.262881,61.6080641 62.0104339,54.9748846 C64.7579868,48.3417051 61.6080641,40.737119 54.9748846,37.9895661 C48.3417051,35.2420132 40.737119,38.3919359 37.9895661,45.0251154 C35.2420132,51.6582949 38.3919359,59.262881 45.0251154,62.0104339 Z"></path></g></g></svg>